# xmcd CD database file
#
# Track frame offsets:
#	150
#	15547
#	30512
#	46090
#	59755
#	79138
#	97950
#	114156
#	126720
#	141955
#
# Disc length: 2111 seconds
#
# Revision: 1
# Processed by: cddbd v1.5.1PL2 Copyright (c) Steve Scherf et al.
# Submitted via: CDex 1.51
#
DISCID=81083d0a
DTITLE=Julia Kadar - Historia de un Amor
DYEAR=2004
DGENRE=Blues
TTITLE0=Sabor a mi
TTITLE1=Perfidia
TTITLE2=Historia de un Amor
TTITLE3=Piel Canela
TTITLE4=Sonet for mamba
TTITLE5=Abrazame
TTITLE6=Noche de Ronda
TTITLE7=Solamente una vez
TTITLE8=Manana de carnaval
TTITLE9=La Puerta
EXTD=YEAR: 2004
EXTT0=
EXTT1=
EXTT2=
EXTT3=
EXTT4=
EXTT5=
EXTT6=
EXTT7=
EXTT8=
EXTT9=
PLAYORDER=
